<svg width="15" height="15" viewBox="0 0 15 15" fill="none" xmlns="http://www.w3.org/2000/svg">
<g clip-path="url(#clip0_1_126)">
<path d="M7.91893 11.4396C7.54393 11.3743 7.54393 10.8343 7.91893 10.7689C8.58258 10.6536 9.19708 10.3439 9.6846 9.87913C10.1721 9.41431 10.5107 8.81526 10.6575 8.15785L10.6832 8.04C10.7646 7.66821 11.2939 7.66607 11.3786 8.03678L11.4107 8.17928C11.564 8.83194 11.9057 9.42516 12.3933 9.88519C12.881 10.3452 13.4931 10.6518 14.1536 10.7668C14.5318 10.8332 14.5318 11.3754 14.1536 11.4418C13.4894 11.5575 12.8742 11.8668 12.3853 12.331C11.8963 12.7952 11.5554 13.3934 11.4054 14.0507L11.3786 14.1707C11.2929 14.5425 10.7646 14.5393 10.6821 14.1686L10.6607 14.0646C10.5162 13.4042 10.1782 12.8019 9.68984 12.3343C9.20151 11.8668 8.585 11.5553 7.91893 11.4396Z" stroke="black" stroke-width="1.5" stroke-linecap="round" stroke-linejoin="round"/>
<path d="M7.91893 11.4396C7.54393 11.3743 7.54393 10.8343 7.91893 10.7689C8.58258 10.6536 9.19708 10.3439 9.6846 9.87913C10.1721 9.41431 10.5107 8.81526 10.6575 8.15785L10.6832 8.04C10.7646 7.66821 11.2939 7.66607 11.3786 8.03678L11.4107 8.17928C11.564 8.83194 11.9057 9.42516 12.3933 9.88519C12.881 10.3452 13.4931 10.6518 14.1536 10.7668C14.5318 10.8332 14.5318 11.3754 14.1536 11.4418C13.4894 11.5575 12.8742 11.8668 12.3853 12.331C11.8963 12.7952 11.5554 13.3934 11.4054 14.0507L11.3786 14.1707C11.2929 14.5425 10.7646 14.5393 10.6821 14.1686L10.6607 14.0646C10.5162 13.4042 10.1782 12.8019 9.68984 12.3343C9.20151 11.8668 8.585 11.5553 7.91893 11.4396Z" fill="black"/>
<path fill-rule="evenodd" clip-rule="evenodd" d="M0.0267868 9.42642C0.0267868 10.4379 0.84643 11.2564 1.85679 11.2564H5.7675C5.72512 10.6746 5.90897 10.0989 6.28072 9.64928H1.90179C1.83075 9.64928 1.76262 9.62106 1.71238 9.57083C1.66215 9.52059 1.63393 9.45246 1.63393 9.38142V6.25714L1.85143 6.21857C2.87533 6.03486 3.93011 6.13868 4.89854 6.51849C5.86697 6.8983 6.71112 7.53921 7.33714 8.37L7.73143 8.89178C8.00084 8.8199 8.24538 8.67551 8.43845 8.47432C8.63151 8.27313 8.76571 8.02285 8.82643 7.75071L8.85107 7.63928C9.16714 6.19821 10.5579 5.64321 11.6968 5.98071V1.84607C11.6968 0.83571 10.8771 0.0160675 9.86679 0.0160675H1.85679C0.84643 0.0160675 0.0267868 0.83571 0.0267868 1.84607V9.42642ZM8.445 4.85678C8.83459 4.85678 9.20821 4.70202 9.48369 4.42654C9.75917 4.15107 9.91393 3.77744 9.91393 3.38785C9.91393 2.99827 9.75917 2.62464 9.48369 2.34916C9.20821 2.07369 8.83459 1.91892 8.445 1.91892C8.05542 1.91892 7.68179 2.07369 7.40631 2.34916C7.13083 2.62464 6.97607 2.99827 6.97607 3.38785C6.97607 3.77744 7.13083 4.15107 7.40631 4.42654C7.68179 4.70202 8.05542 4.85678 8.445 4.85678Z" fill="black"/>
</g>
<defs>
<clipPath id="clip0_1_126">
<rect width="15" height="15" fill="white"/>
</clipPath>
</defs>
</svg>
