<svg width="12" height="12" viewBox="0 0 12 12" fill="none" xmlns="http://www.w3.org/2000/svg">
<g clip-path="url(#clip0_1_264)">
<path d="M6.32142 3.45536C5.90177 3.69643 5.31807 4.03237 4.5703 4.46318C3.82253 4.89398 3.23883 5.23215 2.81918 5.47768C2.30133 5.31697 1.86829 5.02679 1.52008 4.60715L1.44642 4.65402C1.39284 4.68527 1.33481 4.69309 1.27231 4.67746C1.20981 4.66184 1.1607 4.62724 1.12499 4.57367L0.904006 4.19197C0.872756 4.1384 0.866059 4.07813 0.883916 4.01117C0.901773 3.9442 0.937488 3.89286 0.991059 3.85715L1.06472 3.81697C0.828113 3.2009 0.822532 2.57478 1.04798 1.93862C1.27343 1.30246 1.67856 0.81697 2.26338 0.482149C2.85713 0.142863 3.48213 0.0334878 4.13838 0.154024C4.79463 0.274559 5.33258 0.591523 5.75222 1.10492L5.82588 1.05804C5.88838 1.02679 5.95088 1.02121 6.01338 1.0413C6.07588 1.06139 6.12499 1.09822 6.1607 1.15179L6.37499 1.53349C6.40624 1.58706 6.41405 1.64509 6.39842 1.70759C6.3828 1.77009 6.3482 1.8192 6.29463 1.85492L6.20758 1.90179C6.39508 2.39733 6.43302 2.91518 6.32142 3.45536ZM8.01561 11.0156C8.18079 11.3326 8.38726 11.5759 8.63503 11.7455C8.8828 11.9152 9.14954 12 9.43526 12C9.93526 12 10.3471 11.8359 10.6707 11.5078C10.9944 11.1797 11.154 10.7723 11.1495 10.2857C11.1495 10.1295 11.1373 9.97322 11.1127 9.81697C11.0882 9.66072 11.0625 9.52902 11.0357 9.42188C11.0089 9.31474 10.9676 9.19309 10.9118 9.05692C10.856 8.92076 10.8147 8.82478 10.7879 8.76898C10.7611 8.71317 10.7165 8.62612 10.654 8.50782C10.5915 8.38951 10.558 8.32367 10.5536 8.31027C10.4553 8.12277 10.3538 7.99554 10.2489 7.92858C10.144 7.86161 10.058 7.84599 9.99106 7.8817C9.94642 7.90402 9.91517 7.94643 9.89731 8.00893C9.87945 8.07143 9.88168 8.15291 9.90401 8.25335C9.92633 8.3538 9.96874 8.45983 10.0312 8.57143C10.1607 8.79465 10.2891 9.08817 10.4163 9.45201C10.5435 9.81585 10.6071 10.1116 10.6071 10.3393C10.6071 10.6295 10.4855 10.8817 10.2422 11.096C9.99887 11.3103 9.71874 11.4174 9.40177 11.4174C9.14284 11.4174 8.86606 11.1763 8.57142 10.6942L8.62499 10.6607C8.74552 10.5893 8.83481 10.5234 8.89284 10.4632C8.95088 10.4029 8.98659 10.3237 8.99999 10.2255C9.01338 10.1272 8.98659 10.0156 8.91963 9.89063L6.38838 4.09822L5.29686 4.72768L5.85267 5.68527C5.87945 5.72992 5.88503 5.78014 5.86941 5.83594C5.85378 5.89175 5.82365 5.93304 5.77901 5.95983L5.51784 6.10715L5.25668 6.25447C5.20758 6.28572 5.15735 6.29353 5.10601 6.27791C5.05467 6.26228 5.01338 6.22992 4.98213 6.18081L4.43302 5.22992L3.34151 5.85938L7.09151 10.9487C7.21651 11.1138 7.34374 11.2042 7.4732 11.2199C7.60267 11.2355 7.74776 11.1897 7.90847 11.0826L8.01561 11.0156Z" fill="#FFF0F0"/>
</g>
<defs>
<clipPath id="clip0_1_264">
<rect width="12" height="12" fill="white"/>
</clipPath>
</defs>
</svg>
