<svg width="16" height="16" viewBox="0 0 16 16" fill="none" xmlns="http://www.w3.org/2000/svg">
<path d="M13.356 11.1383C13.356 13.1069 11.856 13.8503 10.8649 13.8503C9.73343 13.8503 8.92314 13.1137 8.92314 12.0689C8.92314 11.0443 9.55914 10.3414 10.9251 10.0603L11.99 9.83228C12.2643 9.77886 12.4051 9.578 12.4051 9.27L12.3803 4.68429L7.42857 5.69829C7.12714 5.75829 7.07371 5.81857 7.07371 6.15343V12.2809C7.07371 14.2494 5.57371 14.9929 4.58257 14.9929C3.45114 14.9929 2.64057 14.2563 2.64057 13.2114C2.64057 12.1869 3.27686 11.484 4.64286 11.2029L5.70771 10.9749C5.982 10.9214 6.12286 10.7206 6.12286 10.4126L6.08257 2.966C6.08257 2.56429 6.33029 2.32314 6.78571 2.22257L12.6897 1.02171C13.0514 0.941714 13.3594 1.18914 13.3594 1.56429V4.08886C13.3594 4.10886 13.3583 4.12829 13.356 4.14771V11.1383Z" fill="black"/>
</svg>
