<svg width="22" height="21" viewBox="0 0 22 21" fill="none" xmlns="http://www.w3.org/2000/svg">
<g filter="url(#filter0_d_1_124)">
<path fill-rule="evenodd" clip-rule="evenodd" d="M6.33333 3.33333C5.8029 3.33333 5.29419 3.54404 4.91912 3.91911C4.54405 4.29419 4.33333 4.8029 4.33333 5.33333V10.6667C4.33333 11.1971 4.54405 11.7058 4.91912 12.0809C5.29419 12.4559 5.8029 12.6667 6.33333 12.6667H13C13.5304 12.6667 14.0391 12.4559 14.4142 12.0809C14.7893 11.7058 15 11.1971 15 10.6667V9.60933L16.5287 11.138C16.6219 11.2312 16.7407 11.2947 16.87 11.3204C16.9993 11.3461 17.1333 11.3329 17.2551 11.2824C17.3769 11.232 17.481 11.1466 17.5543 11.037C17.6275 10.9274 17.6666 10.7985 17.6667 10.6667V5.33333C17.6666 5.20149 17.6275 5.07263 17.5543 4.96302C17.481 4.85342 17.3769 4.76799 17.2551 4.71754C17.1333 4.6671 16.9993 4.65389 16.87 4.67961C16.7407 4.70532 16.6219 4.76879 16.5287 4.86199L15 6.39066V5.33333C15 4.8029 14.7893 4.29419 14.4142 3.91911C14.0391 3.54404 13.5304 3.33333 13 3.33333H6.33333Z" fill="black"/>
</g>
<defs>
<filter id="filter0_d_1_124" x="-1" y="0" width="24" height="24" filterUnits="userSpaceOnUse" color-interpolation-filters="sRGB">
<feFlood flood-opacity="0" result="BackgroundImageFix"/>
<feColorMatrix in="SourceAlpha" type="matrix" values="0 0 0 0 0 0 0 0 0 0 0 0 0 0 0 0 0 0 127 0" result="hardAlpha"/>
<feOffset dy="4"/>
<feGaussianBlur stdDeviation="2"/>
<feComposite in2="hardAlpha" operator="out"/>
<feColorMatrix type="matrix" values="0 0 0 0 0 0 0 0 0 0 0 0 0 0 0 0 0 0 0.25 0"/>
<feBlend mode="normal" in2="BackgroundImageFix" result="effect1_dropShadow_1_124"/>
<feBlend mode="normal" in="SourceGraphic" in2="effect1_dropShadow_1_124" result="shape"/>
</filter>
</defs>
</svg>
